{"title":"Crash Point Berlin (2009) DVDrip x264 [Hindi] XdesiArsenal Silve","uid":9682291,"size":736567640,"categoryP":"video","categoryS":"movies","magnet":"?xt=urn:btih:77b0ca8710280caa58330a799be5d1052e787e8d&amp;dn=Crash+Point+Berlin+%282009%29+DVDrip+x264+%5BHindi%5D+XdesiArsenal+Silve&amp;tr=udp%3A%2F%2Ftracker.openbittorrent.com%3A80&amp;tr=udp%3A%2F%2Fopen.demonii.com%3A1337&amp;tr=udp%3A%2F%2Ftracker.coppersurfer.tk%3A6969&amp;tr=udp%3A%2F%2Fexodus.desync.com%3A6969","seeders":1,"leechers":2,"uploader":"Xdesiars","files":4,"time":1393684252,"description":"Format                                   : Matroska\nFormat version                           : Version 2\nFile size                                : 692 MiB\nDuration                                 : 1h 33mn\nOverall bit rate                         : 1 039 Kbps\nMovie name                               : Crash Point Berlin (2009) by XdesiArsenal\nEncoded date                             : UTC 2014-02-28 20:40:44\nWriting application                      : mkvmerge v5.0.1 ('Es ist Sommer') built on Nov 23 2011 20:48:57\nWriting library                          : libebml v1.2.2 + libmatroska v1.3.0\n\nVideo\nID                                       : 1\nFormat                                   : MPEG-4 Visual\nFormat profile                           : Simple@L3\nFormat settings, BVOP                    : Yes\nFormat settings, QPel                    : No\nFormat settings, GMC                     : No warppoints\nFormat settings, Matrix                  : Default (MPEG)\nCodec ID                                 : V_MS/VFW/FOURCC / XVID\nCodec ID/Hint                            : XviD\nDuration                                 : 1h 33mn\nBit rate                                 : 890 Kbps\nWidth                                    : 528 pixels\nHeight                                   : 400 pixels\nDisplay aspect ratio                     : 2.222\nOriginal display aspect ratio            : 4:3\nFrame rate mode                          : Constant\nFrame rate                               : 23.976 fps\nColor space                              : YUV\nChroma subsampling                       : 4:2:0\nBit depth                                : 8 bits\nScan type                                : Progressive\nCompression mode                         : Lossy\nBits/(Pixel*Frame)                       : 0.176\nStream size                              : 593 MiB (86%)\nTitle                                    : Crash Point Berlin (2009) by XdesiArsenal\nWriting library                          : XviD 1.0.3 (UTC 2004-12-20)\nDefault                                  : Yes\nForced                                   : No\n\nAudio\nID                                       : 2\nFormat                                   : AC-3\nFormat/Info                              : Audio Coding 3\nMode extension                           : CM (complete main)\nFormat settings, Endianness              : Big\nMuxing mode                              : Header stripping\nCodec ID                                 : A_AC3\nDuration                                 : 1h 33mn\nBit rate mode                            : Constant\nBit rate                                 : 128 Kbps\nChannel(s)                               : 2 channels\nChannel positions                        : Front: L R\nSampling rate                            : 44.1 KHz\nBit depth                                : 16 bits\nCompression mode                         : Lossy\nDelay relative to video                  : 13ms\nStream size                              : 85.3 MiB (12%)\nTitle                                    : XdesiArsenal\nLanguage                                 : Hindi\nDefault                                  : No\nForced                                   : No\n","torrent":{"xt":"urn:btih:77b0ca8710280caa58330a799be5d1052e787e8d","amp;dn":"Crash+Point+Berlin+%282009%29+DVDrip+x264+%5BHindi%5D+XdesiArsenal+Silve","amp;tr":["udp%3A%2F%2Ftracker.openbittorrent.com%3A80","udp%3A%2F%2Fopen.demonii.com%3A1337","udp%3A%2F%2Ftracker.coppersurfer.tk%3A6969","udp%3A%2F%2Fexodus.desync.com%3A6969"],"infoHash":"77b0ca8710280caa58330a799be5d1052e787e8d","infoHashBuffer":{"type":"Buffer","data":[119,176,202,135,16,40,12,170,88,51,10,121,155,229,209,5,46,120,126,141]},"announce":[],"urlList":[]}}